<svg width="160" height="46" viewBox="0 0 160 46" fill="none" xmlns="http://www.w3.org/2000/svg">
<rect width="160" height="46" rx="10" fill="#6C63FF"/>
<path d="M34.688 16.848V28H33.232V16.848H34.688ZM41.4415 19.072C42.5082 19.072 43.3722 19.3973 44.0335 20.048C44.6948 20.688 45.0255 21.616 45.0255 22.832V28H43.5855V23.04C43.5855 22.1653 43.3668 21.4987 42.9295 21.04C42.4922 20.5707 41.8948 20.336 41.1375 20.336C40.3695 20.336 39.7562 20.576 39.2975 21.056C38.8495 21.536 38.6255 22.2347 38.6255 23.152V28H37.1695V19.232H38.6255V20.48C38.9135 20.032 39.3028 19.6853 39.7935 19.44C40.2948 19.1947 40.8442 19.072 41.4415 19.072ZM50.5079 28.144C49.8359 28.144 49.2332 28.032 48.6999 27.808C48.1665 27.5733 47.7452 27.2533 47.4359 26.848C47.1265 26.432 46.9559 25.9573 46.9239 25.424H48.4279C48.4705 25.8613 48.6732 26.2187 49.0359 26.496C49.4092 26.7733 49.8945 26.912 50.4919 26.912C51.0465 26.912 51.4839 26.7893 51.8039 26.544C52.1239 26.2987 52.2839 25.9893 52.2839 25.616C52.2839 25.232 52.1132 24.9493 51.7719 24.768C51.4305 24.576 50.9025 24.3893 50.1879 24.208C49.5372 24.0373 49.0039 23.8667 48.5879 23.696C48.1825 23.5147 47.8305 23.2533 47.5319 22.912C47.2439 22.56 47.0999 22.1013 47.0999 21.536C47.0999 21.088 47.2332 20.6773 47.4999 20.304C47.7665 19.9307 48.1452 19.6373 48.6359 19.424C49.1265 19.2 49.6865 19.088 50.3159 19.088C51.2865 19.088 52.0705 19.3333 52.6679 19.824C53.2652 20.3147 53.5852 20.9867 53.6279 21.84H52.1719C52.1399 21.3813 51.9532 21.0133 51.6119 20.736C51.2812 20.4587 50.8332 20.32 50.2679 20.32C49.7452 20.32 49.3292 20.432 49.0199 20.656C48.7105 20.88 48.5559 21.1733 48.5559 21.536C48.5559 21.824 48.6465 22.064 48.8279 22.256C49.0199 22.4373 49.2545 22.5867 49.5319 22.704C49.8199 22.8107 50.2145 22.9333 50.7159 23.072C51.3452 23.2427 51.8572 23.4133 52.2519 23.584C52.6465 23.744 52.9825 23.9893 53.2599 24.32C53.5479 24.6507 53.6972 25.0827 53.7079 25.616C53.7079 26.096 53.5745 26.528 53.3079 26.912C53.0412 27.296 52.6625 27.6 52.1719 27.824C51.6919 28.0373 51.1372 28.144 50.5079 28.144ZM55.2193 23.6C55.2193 22.6933 55.4006 21.904 55.7633 21.232C56.1259 20.5493 56.6273 20.0213 57.2673 19.648C57.9179 19.2747 58.6593 19.088 59.4913 19.088C60.5686 19.088 61.4539 19.3493 62.1473 19.872C62.8513 20.3947 63.3153 21.12 63.5393 22.048H61.9713C61.8219 21.5147 61.5286 21.0933 61.0913 20.784C60.6646 20.4747 60.1313 20.32 59.4913 20.32C58.6593 20.32 57.9873 20.608 57.4753 21.184C56.9633 21.7493 56.7073 22.5547 56.7073 23.6C56.7073 24.656 56.9633 25.472 57.4753 26.048C57.9873 26.624 58.6593 26.912 59.4913 26.912C60.1313 26.912 60.6646 26.7627 61.0913 26.464C61.5179 26.1653 61.8113 25.7387 61.9713 25.184H63.5393C63.3046 26.08 62.8353 26.8 62.1313 27.344C61.4273 27.8773 60.5473 28.144 59.4913 28.144C58.6593 28.144 57.9179 27.9573 57.2673 27.584C56.6273 27.2107 56.1259 26.6827 55.7633 26C55.4006 25.3173 55.2193 24.5173 55.2193 23.6ZM66.938 20.656C67.194 20.1547 67.5567 19.7653 68.026 19.488C68.506 19.2107 69.0873 19.072 69.77 19.072V20.576H69.386C67.754 20.576 66.938 21.4613 66.938 23.232V28H65.482V19.232H66.938V20.656ZM79.4508 23.28C79.4508 23.5573 79.4348 23.8507 79.4028 24.16H72.3948C72.4481 25.024 72.7414 25.7013 73.2748 26.192C73.8188 26.672 74.4748 26.912 75.2428 26.912C75.8721 26.912 76.3948 26.768 76.8108 26.48C77.2374 26.1813 77.5361 25.7867 77.7068 25.296H79.2748C79.0401 26.1387 78.5708 26.8267 77.8668 27.36C77.1628 27.8827 76.2881 28.144 75.2428 28.144C74.4108 28.144 73.6641 27.9573 73.0028 27.584C72.3521 27.2107 71.8401 26.6827 71.4668 26C71.0934 25.3067 70.9068 24.5067 70.9068 23.6C70.9068 22.6933 71.0881 21.8987 71.4508 21.216C71.8134 20.5333 72.3201 20.0107 72.9708 19.648C73.6321 19.2747 74.3894 19.088 75.2428 19.088C76.0748 19.088 76.8108 19.2693 77.4508 19.632C78.0908 19.9947 78.5814 20.496 78.9228 21.136C79.2748 21.7653 79.4508 22.48 79.4508 23.28ZM77.9468 22.976C77.9468 22.4213 77.8241 21.9467 77.5788 21.552C77.3334 21.1467 76.9974 20.8427 76.5708 20.64C76.1548 20.4267 75.6908 20.32 75.1788 20.32C74.4428 20.32 73.8134 20.5547 73.2908 21.024C72.7788 21.4933 72.4854 22.144 72.4108 22.976H77.9468ZM84.6366 26.656L87.3566 19.232H88.9086L85.4686 28H83.7726L80.3326 19.232H81.9006L84.6366 26.656ZM89.7974 23.584C89.7974 22.688 89.9787 21.904 90.3414 21.232C90.704 20.5493 91.2 20.0213 91.8294 19.648C92.4694 19.2747 93.1787 19.088 93.9574 19.088C94.7254 19.088 95.392 19.2533 95.9574 19.584C96.5227 19.9147 96.944 20.3307 97.2214 20.832V19.232H98.6934V28H97.2214V26.368C96.9334 26.88 96.5014 27.3067 95.9254 27.648C95.36 27.9787 94.6987 28.144 93.9414 28.144C93.1627 28.144 92.4587 27.952 91.8294 27.568C91.2 27.184 90.704 26.6453 90.3414 25.952C89.9787 25.2587 89.7974 24.4693 89.7974 23.584ZM97.2214 23.6C97.2214 22.9387 97.088 22.3627 96.8214 21.872C96.5547 21.3813 96.192 21.008 95.7334 20.752C95.2854 20.4853 94.7894 20.352 94.2454 20.352C93.7014 20.352 93.2054 20.48 92.7574 20.736C92.3094 20.992 91.952 21.3653 91.6854 21.856C91.4187 22.3467 91.2854 22.9227 91.2854 23.584C91.2854 24.256 91.4187 24.8427 91.6854 25.344C91.952 25.8347 92.3094 26.2133 92.7574 26.48C93.2054 26.736 93.7014 26.864 94.2454 26.864C94.7894 26.864 95.2854 26.736 95.7334 26.48C96.192 26.2133 96.5547 25.8347 96.8214 25.344C97.088 24.8427 97.2214 24.2613 97.2214 23.6ZM107.234 21.52V22.752H100.85V21.52H107.234ZM113.07 28.144C112.398 28.144 111.796 28.032 111.262 27.808C110.729 27.5733 110.308 27.2533 109.998 26.848C109.689 26.432 109.518 25.9573 109.486 25.424H110.99C111.033 25.8613 111.236 26.2187 111.598 26.496C111.972 26.7733 112.457 26.912 113.054 26.912C113.609 26.912 114.046 26.7893 114.366 26.544C114.686 26.2987 114.846 25.9893 114.846 25.616C114.846 25.232 114.676 24.9493 114.334 24.768C113.993 24.576 113.465 24.3893 112.75 24.208C112.1 24.0373 111.566 23.8667 111.15 23.696C110.745 23.5147 110.393 23.2533 110.094 22.912C109.806 22.56 109.662 22.1013 109.662 21.536C109.662 21.088 109.796 20.6773 110.062 20.304C110.329 19.9307 110.708 19.6373 111.198 19.424C111.689 19.2 112.249 19.088 112.878 19.088C113.849 19.088 114.633 19.3333 115.23 19.824C115.828 20.3147 116.148 20.9867 116.19 21.84H114.734C114.702 21.3813 114.516 21.0133 114.174 20.736C113.844 20.4587 113.396 20.32 112.83 20.32C112.308 20.32 111.892 20.432 111.582 20.656C111.273 20.88 111.118 21.1733 111.118 21.536C111.118 21.824 111.209 22.064 111.39 22.256C111.582 22.4373 111.817 22.5867 112.094 22.704C112.382 22.8107 112.777 22.9333 113.278 23.072C113.908 23.2427 114.42 23.4133 114.814 23.584C115.209 23.744 115.545 23.9893 115.822 24.32C116.11 24.6507 116.26 25.0827 116.27 25.616C116.27 26.096 116.137 26.528 115.87 26.912C115.604 27.296 115.225 27.6 114.734 27.824C114.254 28.0373 113.7 28.144 113.07 28.144ZM126.326 23.28C126.326 23.5573 126.31 23.8507 126.278 24.16H119.27C119.323 25.024 119.616 25.7013 120.15 26.192C120.694 26.672 121.35 26.912 122.118 26.912C122.747 26.912 123.27 26.768 123.686 26.48C124.112 26.1813 124.411 25.7867 124.582 25.296H126.15C125.915 26.1387 125.446 26.8267 124.742 27.36C124.038 27.8827 123.163 28.144 122.118 28.144C121.286 28.144 120.539 27.9573 119.878 27.584C119.227 27.2107 118.715 26.6827 118.342 26C117.968 25.3067 117.782 24.5067 117.782 23.6C117.782 22.6933 117.963 21.8987 118.326 21.216C118.688 20.5333 119.195 20.0107 119.846 19.648C120.507 19.2747 121.264 19.088 122.118 19.088C122.95 19.088 123.686 19.2693 124.326 19.632C124.966 19.9947 125.456 20.496 125.798 21.136C126.15 21.7653 126.326 22.48 126.326 23.28ZM124.822 22.976C124.822 22.4213 124.699 21.9467 124.454 21.552C124.208 21.1467 123.872 20.8427 123.446 20.64C123.03 20.4267 122.566 20.32 122.054 20.32C121.318 20.32 120.688 20.5547 120.166 21.024C119.654 21.4933 119.36 22.144 119.286 22.976H124.822Z" fill="white"/>
</svg>
